<svg width="262" height="65" viewBox="0 0 262 65" fill="none" xmlns="http://www.w3.org/2000/svg">
    <path d="M35.7384 52.171C33.8112 52.171 31.9745 51.7124 30.231 50.7925C28.6246 49.9659 27.1785 48.8154 25.8929 47.3436C25.6626 47.113 25.4557 46.872 25.272 46.6207C25.0884 46.3693 24.9047 46.1024 24.721 45.8278C24.3537 46.3797 23.9864 46.885 23.619 47.3462C22.3334 48.818 20.8873 49.9685 19.2809 50.7951C17.4443 51.715 15.5843 52.1736 13.7037 52.1736C11.8231 52.1736 10.0304 51.715 8.19632 50.7951C6.58989 49.9685 5.14385 48.818 3.85819 47.3462C2.6191 45.8744 1.66456 44.1979 0.99974 42.3115C0.334923 40.4277 0.0012207 38.4481 0.0012207 36.3803V20.517C0.0012207 19.7345 0.265078 19.0815 0.792793 18.5503C1.32051 18.0217 1.97498 17.7574 2.7562 17.7574C3.53743 17.7574 4.18931 18.0217 4.71961 18.5503C5.24733 19.0789 5.51118 19.7345 5.51118 20.517V36.3129C5.51118 37.7381 5.72848 39.0959 6.16565 40.3811C6.60024 41.6689 7.23402 42.7961 8.05922 43.76C8.84044 44.6799 9.71221 45.3925 10.6771 45.8977C11.642 46.4056 12.6509 46.657 13.7063 46.657C15.8637 46.657 17.7676 45.6904 19.4206 43.76C20.2458 42.7935 20.877 41.6689 21.3142 40.3811C21.7488 39.0933 21.9686 37.7381 21.9686 36.3129V20.517C21.9686 19.7345 22.2325 19.0815 22.7602 18.5503C23.2879 18.0191 23.9424 17.7574 24.7236 17.7574C25.5048 17.7574 26.1567 18.0217 26.687 18.5503C27.2147 19.0789 27.4786 19.7345 27.4786 20.517V36.3129C27.4786 37.7381 27.7088 39.0959 28.1667 40.3811C28.6246 41.6689 29.2687 42.7961 30.0939 43.76C30.8751 44.6799 31.7469 45.3925 32.7118 45.8977C33.6767 46.4056 34.6855 46.657 35.741 46.657C37.8984 46.657 39.8049 45.6904 41.4553 43.76C42.2805 42.7935 42.9117 41.6689 43.3488 40.3811C43.7834 39.0933 44.0033 37.7381 44.0033 36.3129V20.517C44.0033 19.7345 44.2672 19.0815 44.7949 18.5503C45.3226 18.0191 45.9771 17.7574 46.7583 17.7574C47.5395 17.7574 48.1914 18.0217 48.7217 18.5503C49.2494 19.0789 49.5133 19.7345 49.5133 20.517V36.3803C49.5133 38.4507 49.1796 40.4277 48.5148 42.3115C47.8499 44.1979 46.8954 45.8744 45.6563 47.3462C44.4172 48.818 42.9479 49.9685 41.2483 50.7951C39.5022 51.715 37.6682 52.1736 35.741 52.1736L35.7384 52.171Z" fill="#002D4C"/>
    <path d="M94.6096 52.1036C93.8284 52.1036 93.1739 51.8393 92.6462 51.3107C92.1185 50.7821 91.8546 50.1266 91.8546 49.344V33.6181C91.8546 31.5037 92.2452 29.48 93.0265 27.5495C93.8077 25.6191 94.9537 23.8934 96.4695 22.3775C97.9389 20.9057 99.6358 19.7682 101.566 18.9623C103.493 18.159 105.513 17.7548 107.624 17.7548C108.405 17.7548 109.057 18.0191 109.587 18.5477C110.115 19.0763 110.379 19.7319 110.379 20.5144C110.379 21.297 110.115 21.9526 109.587 22.4812C109.06 23.0098 108.405 23.2741 107.624 23.2741C106.201 23.2741 104.869 23.5487 103.63 24.1006C102.391 24.6526 101.299 25.3885 100.36 26.3083C99.4185 27.2282 98.6839 28.3217 98.1562 29.5836C97.6284 30.8481 97.3646 32.1929 97.3646 33.6181V49.344C97.3646 50.1266 97.1007 50.7821 96.573 51.3107C96.0453 51.8393 95.3908 52.1036 94.6096 52.1036Z" fill="#002D4C"/>
    <path d="M131.93 52.1036C131.149 52.1036 130.494 51.8393 129.966 51.3107C129.439 50.7821 129.175 50.1265 129.175 49.344C129.175 47.9188 128.945 46.574 128.487 45.3095C128.026 44.045 127.385 42.8945 126.56 41.8607C125.734 40.8268 124.757 39.9535 123.634 39.2384C122.509 38.5258 121.28 38.0076 119.95 37.6862V49.344C119.95 50.1265 119.686 50.7821 119.159 51.3107C118.631 51.8393 117.977 52.1036 117.195 52.1036C116.414 52.1036 115.76 51.8393 115.232 51.3107C114.704 50.7821 114.44 50.1265 114.44 49.344V4.09665C114.44 3.31411 114.704 2.66113 115.232 2.12994C115.76 1.59875 116.414 1.33704 117.195 1.33704C117.977 1.33704 118.628 1.60134 119.159 2.12994C119.686 2.65854 119.95 3.31411 119.95 4.09665V31.4778C121.28 31.1565 122.509 30.6382 123.634 29.9256C124.759 29.2131 125.734 28.3398 126.56 27.3034C127.385 26.2695 128.029 25.119 128.487 23.8545C128.945 22.59 129.175 21.2451 129.175 19.82C129.175 19.0375 129.439 18.3845 129.966 17.8533C130.494 17.3247 131.149 17.0604 131.93 17.0604C132.711 17.0604 133.363 17.3247 133.893 17.8533C134.421 18.3819 134.685 19.0375 134.685 19.82C134.685 22.165 134.248 24.4064 133.376 26.5441C132.504 28.6819 131.242 30.5786 129.589 32.2344C128.67 33.1076 127.682 33.8902 126.627 34.5794C127.682 35.2687 128.668 36.0512 129.589 36.9244C131.242 38.5802 132.504 40.477 133.376 42.6147C134.248 44.7524 134.685 46.9938 134.685 49.3388C134.685 50.1214 134.421 50.7769 133.893 51.3055C133.366 51.8341 132.711 52.0984 131.93 52.0984V52.1036Z" fill="#002D4C"/>
    <path d="M141.501 51.759C140.72 51.759 140.066 51.4947 139.538 50.9661C139.01 50.4375 138.746 49.7819 138.746 48.9994V15.4098C138.746 13.4327 139.114 11.5826 139.848 9.85687C140.583 8.13373 141.592 6.62825 142.877 5.33784C144.163 4.05002 145.666 3.03945 147.386 2.30355C149.107 1.56766 150.956 1.19971 152.93 1.19971C153.711 1.19971 154.363 1.46401 154.893 1.99261C155.421 2.52121 155.685 3.17678 155.685 3.95932C155.685 4.74186 155.421 5.39744 154.893 5.92604C154.366 6.45464 153.711 6.71894 152.93 6.71894C151.781 6.71894 150.692 6.9366 149.66 7.37451C148.628 7.81242 147.72 8.39803 146.941 9.13393C146.16 9.86983 145.529 10.7431 145.048 11.7562C144.567 12.7694 144.3 13.8499 144.256 14.9978V18.8613H152.932C153.714 18.8613 154.366 19.1256 154.896 19.6542C155.424 20.1828 155.687 20.8383 155.687 21.6209C155.687 22.4034 155.424 23.059 154.896 23.5876C154.368 24.1162 153.714 24.3805 152.932 24.3805H144.256V49.0046C144.256 49.7871 143.992 50.4427 143.465 50.9713C142.937 51.4999 142.282 51.7642 141.501 51.7642V51.759Z" fill="#002D4C"/>
    <path d="M191.078 52.241C190.297 52.241 189.642 51.9767 189.115 51.4481C188.587 50.9195 188.323 50.2639 188.323 49.4814V47.8956C186.717 49.3207 184.937 50.4012 182.986 51.1371C181.036 51.873 178.982 52.241 176.824 52.241C174.527 52.241 172.349 51.8264 170.282 50.9998C168.216 50.1732 166.381 48.9761 164.775 47.4136C163.169 45.8045 161.929 43.988 161.058 41.9643C160.186 39.9406 159.749 37.8029 159.749 35.5485C159.749 33.2942 160.183 31.1591 161.058 29.1353C161.929 27.1116 163.169 25.2978 164.775 23.6861C166.381 22.0769 168.218 20.8591 170.282 20.0299C172.349 19.2033 174.527 18.7887 176.824 18.7887C179.122 18.7887 181.3 19.2033 183.367 20.0299C185.433 20.8565 187.268 22.0769 188.874 23.6861C190.48 25.2952 191.72 27.1116 192.591 29.1353C193.463 31.1591 193.9 33.2968 193.9 35.5485C193.9 35.7792 193.887 36.0201 193.867 36.2715C193.843 36.5254 193.833 36.7897 193.833 37.0644V49.4788C193.833 50.2613 193.569 50.9169 193.041 51.4455C192.514 51.9741 191.859 52.2384 191.078 52.2384V52.241ZM176.824 24.308C175.218 24.308 173.715 24.6085 172.316 25.2045C170.914 25.8031 169.698 26.6089 168.666 27.6195C167.633 28.6327 166.806 29.8168 166.187 31.172C165.567 32.5298 165.259 33.9886 165.259 35.5511C165.259 37.1136 165.569 38.5051 166.187 39.8629C166.808 41.2207 167.633 42.4048 168.666 43.4154C169.698 44.4285 170.914 45.2318 172.316 45.8304C173.715 46.4289 175.218 46.7269 176.824 46.7269C178.294 46.7269 179.693 46.4756 181.026 45.9677C182.358 45.4624 183.54 44.7602 184.572 43.8637C185.604 42.9671 186.453 41.9099 187.12 40.6921C187.785 39.4742 188.188 38.1734 188.326 36.7949V34.3125C188.188 32.934 187.785 31.6333 187.12 30.4154C186.455 29.1975 185.604 28.1403 184.572 27.2412C183.54 26.3446 182.358 25.6321 181.026 25.1035C179.693 24.5749 178.294 24.3106 176.824 24.3106V24.308Z" fill="#002D4C"/>
    <path d="M215.11 52.241C212.906 52.241 210.805 51.8393 208.808 51.0335C206.811 50.2302 205.008 49.0901 203.402 47.6183V47.5483C201.749 45.9858 200.463 44.1927 199.545 42.169C198.626 40.1453 198.122 37.9609 198.029 35.6159C197.936 33.3175 198.28 31.1228 199.061 29.0291C199.842 26.938 201.035 25.0413 202.641 23.3389C204.201 21.6831 206.004 20.3979 208.048 19.4754C210.089 18.5555 212.259 18.0502 214.554 17.957C216.848 17.8663 219.052 18.2213 221.163 19.0271C223.274 19.833 225.157 21.0171 226.81 22.5796C227.361 23.0849 227.648 23.7301 227.671 24.5101C227.695 25.2926 227.454 25.9585 226.95 26.5105C226.443 27.0624 225.801 27.35 225.022 27.3733C224.241 27.3967 223.576 27.1557 223.025 26.6504C220.684 24.4427 217.929 23.3855 214.763 23.4788C213.201 23.5721 211.721 23.9167 210.321 24.5127C208.919 25.1112 207.693 25.9845 206.638 27.1324C204.434 29.4774 203.402 32.2603 203.539 35.4786C203.629 38.6502 204.848 41.3398 207.189 43.5475C208.335 44.6514 209.633 45.4676 211.079 45.9962C212.525 46.5248 213.982 46.7658 215.451 46.7192C216.92 46.6751 218.367 46.3408 219.789 45.719C221.212 45.0971 222.474 44.2135 223.576 43.063C224.081 42.5111 224.712 42.2234 225.47 42.2001C226.228 42.1768 226.882 42.4178 227.433 42.9231C227.984 43.4283 228.272 44.0606 228.295 44.8198C228.318 45.579 228.077 46.2346 227.573 46.7865C226.011 48.4889 224.21 49.7975 222.167 50.7174C220.123 51.6372 217.955 52.1425 215.658 52.2358H215.107L215.11 52.241Z" fill="#002D4C"/>
    <path d="M249.194 51.689C246.99 51.689 244.902 51.2874 242.928 50.4841C240.955 49.6809 239.185 48.5226 237.625 47.0068C236.019 45.4469 234.767 43.6693 233.872 41.6715C232.977 39.6763 232.506 37.5541 232.459 35.305C232.413 33.0558 232.793 30.9129 233.595 28.871C234.397 26.8292 235.579 25.005 237.142 23.3984C238.658 21.7919 240.424 20.5533 242.445 19.6827C244.465 18.812 246.599 18.3301 248.847 18.2368C251.051 18.1927 253.185 18.571 255.252 19.3717C257.319 20.175 259.153 21.3566 260.76 22.9165L260.829 22.9864C261.334 23.5824 261.587 24.225 261.587 24.9143C261.587 25.6035 261.334 26.2462 260.829 26.8421L243.754 44.6695C244.809 45.2655 245.934 45.6801 247.127 45.9081C248.319 46.1387 249.512 46.1594 250.707 45.9781C251.9 45.7941 253.048 45.4261 254.15 44.8768C255.252 44.3275 256.261 43.5916 257.179 42.6743C257.73 42.125 258.395 41.8373 259.176 41.814C259.958 41.7907 260.622 42.0317 261.173 42.537C261.724 43.0889 261.999 43.7548 261.999 44.5348C261.999 45.3147 261.745 45.9807 261.241 46.53C259.681 48.1365 257.901 49.3751 255.904 50.2458C253.907 51.119 251.783 51.5776 249.535 51.6217C249.442 51.6217 249.375 51.6346 249.328 51.6554C249.282 51.6787 249.235 51.689 249.191 51.689H249.194ZM249.194 23.756C247.724 23.756 246.289 24.0436 244.889 24.6189C243.487 25.1941 242.238 26.057 241.136 27.2049C240.217 28.1248 239.506 29.1587 239.002 30.3091C238.495 31.4596 238.187 32.6308 238.073 33.828C237.959 35.0251 238.039 36.2196 238.314 37.4142C238.59 38.6113 239.048 39.7359 239.69 40.7931L254.631 25.2045C252.885 24.238 251.074 23.756 249.191 23.756H249.194Z" fill="#002D4C"/>
    <path d="M62.5225 26.8007C63.5779 25.7409 64.8066 24.9091 66.2061 24.3105C67.6056 23.712 69.1085 23.4114 70.7176 23.4114C72.3266 23.4114 73.8269 23.712 75.229 24.3105C76.6285 24.9091 77.8572 25.7409 78.9127 26.8007C79.0575 26.9484 79.1998 27.0987 79.3369 27.2515C79.4921 27.4251 79.7146 27.5236 79.9474 27.5236H84.7356C85.3746 27.5236 85.7755 26.824 85.4496 26.2747C84.733 25.062 83.8639 23.9426 82.8395 22.9191C81.2331 21.3125 79.386 20.0739 77.2959 19.2033C75.2057 18.3327 73.0147 17.8947 70.7201 17.8947C68.4256 17.8947 66.1751 18.3301 64.1108 19.2033C62.0439 20.0739 60.2072 21.3151 58.6034 22.9191C57.579 23.9426 56.7047 25.0594 55.9803 26.2695C55.6492 26.8214 56.0502 27.5236 56.6917 27.5236H61.4929C61.7257 27.5236 61.9482 27.4277 62.1034 27.2541C62.2405 27.0987 62.3828 26.9484 62.5302 26.8007H62.5225Z" fill="#01B7F8"/>
    <path d="M87.7933 35.7791C87.7933 35.7791 87.7933 35.761 87.7907 35.7532C87.7804 34.9966 87.514 34.3566 86.9992 33.8383C86.4844 33.3201 85.817 33.0454 85.0384 33.0454C84.2597 33.0454 83.6027 33.3097 83.0749 33.8383C82.5472 34.3669 82.2834 35.0225 82.2834 35.8025C82.2834 35.8128 82.2834 35.8232 82.2834 35.8336C82.2808 37.4297 81.9807 38.1656 81.3883 39.5649C80.7908 40.9719 79.9656 42.2053 78.9101 43.2651C77.8547 44.3249 76.626 45.1567 75.2265 45.7552C73.8244 46.3538 72.3215 46.6544 70.715 46.6544C69.1086 46.6544 67.6057 46.3538 66.2036 45.7552C64.8015 45.1567 63.5754 44.3249 62.5199 43.2651C61.4645 42.2053 60.6264 40.9719 60.0055 39.5649C59.3847 38.1579 59.0769 37.4246 59.0769 35.8102C59.0769 35.8102 59.0769 35.8076 59.0769 35.8051C59.0769 35.0251 58.8104 34.3695 58.2827 33.8409C57.755 33.3123 57.1005 33.048 56.3219 33.048C55.5432 33.048 54.8862 33.3123 54.3585 33.8409C53.8308 34.3695 53.5669 35.0251 53.5669 35.8051C53.5669 35.8154 53.5669 35.8258 53.5669 35.8362C53.5695 38.1164 54.0067 39.5286 54.8758 41.6093C55.7476 43.6978 56.9867 45.5428 58.5931 47.1493C60.1995 48.7558 62.0362 49.9944 64.1005 50.8676C66.1674 51.7409 68.3688 52.1736 70.7099 52.1736C73.0509 52.1736 75.1954 51.7383 77.2856 50.8676C79.3732 49.997 81.2202 48.7558 82.8292 47.1493C84.4356 45.5428 85.6644 43.6978 86.5128 41.6093C87.3613 39.5208 87.7856 38.1086 87.7856 35.8128V35.7817L87.7933 35.7791Z" fill="#002D4C"/>
    <path d="M70.7176 13.8991C74.5493 13.8991 77.6555 10.7877 77.6555 6.94957C77.6555 3.11143 74.5493 0 70.7176 0C66.8859 0 63.7797 3.11143 63.7797 6.94957C63.7797 10.7877 66.8859 13.8991 70.7176 13.8991Z" fill="#01B7F8"/>
    <path d="M136.553 64.9974C132.398 64.8808 129.144 61.349 129.144 57.185V48.6418C129.144 47.582 130.003 46.7217 131.061 46.7217C133.146 46.7217 134.835 48.4138 134.835 50.5023V57.7706C134.835 58.9418 135.821 59.9135 136.985 59.8072C138.149 59.701 138.713 58.6412 138.713 57.3586V48.6055C138.713 47.5665 139.553 46.7243 140.591 46.7243H141.804C143.24 46.7243 144.404 47.8904 144.404 49.3285V57.3612C144.404 61.647 140.862 65.1218 136.555 65L136.553 64.9974Z" fill="#002D4C"/>
</svg>
